<svg id="Laag_1" data-name="Laag 1" xmlns="http://www.w3.org/2000/svg" viewBox="0 0 1157.62 806.33"><defs><style>.cls-1{fill:#fff;}</style></defs><path class="cls-1" d="M271.72,469.17A69.86,69.86,0,0,0,371.11,371l-55.48-56.14H879.54c118.38,0,214.69,96.31,214.69,214.69v5.74a213.28,213.28,0,0,1-62.88,151.81,69.86,69.86,0,0,0,98.8,98.8A352.09,352.09,0,0,0,1234,535.26v-5.75A354.41,354.41,0,0,0,879.54,175.1H314l56.22-55.55A69.86,69.86,0,1,0,272,20.17L97.09,193a69.86,69.86,0,0,0-.6,98.79Z" transform="translate(-76.33 0)"/></svg>