<?xml version="1.0" encoding="utf-8"?>
<!-- Generator: Adobe Illustrator 27.1.0, SVG Export Plug-In . SVG Version: 6.00 Build 0)  -->
<svg version="1.1" id="Layer_1" xmlns="http://www.w3.org/2000/svg" xmlns:xlink="http://www.w3.org/1999/xlink" x="0px" y="0px"
	 viewBox="0 0 800.1 800" style="enable-background:new 0 0 800.1 800;" xml:space="preserve">
<style type="text/css">
	.st0{fill:url(#SVGID_1_);}
	.st1{fill:#FFFFFF;}
</style>
<g id="Capa_1">
	
		<linearGradient id="SVGID_1_" gradientUnits="userSpaceOnUse" x1="483.5063" y1="241.5815" x2="147.5063" y2="646.5815" gradientTransform="matrix(1 0 0 -1 0 742.2346)">
		<stop  offset="0" style="stop-color:#5BBA47"/>
		<stop  offset="1" style="stop-color:#D8E022"/>
	</linearGradient>
	<path class="st0" d="M638.4,0H161.6C72.3,0,0,72.3,0,161.6v476.9C0,727.7,72.3,800,161.6,800h476.9c89.2,0,161.6-72.3,161.6-161.6
		V161.6C800,72.3,727.7,0,638.4,0L638.4,0z"/>
</g>
<g id="Layer_2_00000158709110658782389770000014937290190921201046_">
	<g>
		<path class="st1" d="M268.4,464.9c0,0.1-69.6,68.6-107.8,106.3c-38.3,37.6-70.3,69.3-71.1,70.4C77.6,657,114,648,124.2,664.2
			c6.5,10.2,16.8,17.4,29,20.1c3.9,0.9,13-4.3,16.8-5.1c6.3-1.3-23.9,31-18.6,27.3c2-1.4,18.8-17.7,72.5-70.5l69.9-68.7l3.7,2.2
			c21.5,13.1,46,22.3,70.7,26.5c12.2,2.1,20.5,2.8,33.3,3c20.8,0.2,38.7-2.3,58.6-8c49.2-14.2,91.3-46.8,117.8-91.1
			c3.5-5.8,9.5-17.8,12.2-24.2c11.5-27,17-56.8,16-86.6c-0.1-1.3-0.3-5.1-0.5-8.3c-5.9-79.8-58.5-148.8-134.1-175.8
			c-14.9-5.3-30.6-8.9-48.5-10.9c-5.3-0.6-25-1-31.2-0.6c-57.8,3.5-109.5,29.9-146.1,74.5l33,42.4c10.7-15.6,25.4-30,41.2-40.4
			c21.1-13.8,43.3-21.6,69.1-24.3c7.1-0.7,23.7-0.6,31,0.3c31.6,3.8,59.4,16,82.9,36.6c21.9,19.1,37.9,44.5,45.7,72.3
			c3.3,11.6,5.2,23.5,5.6,35c0.1,3.1,0.2,5.9,0.2,6.2c0,0.4-0.1,3.8-0.3,7.7c-0.4,7.4-1,12.9-2.1,19c-3.8,21.2-12.1,41.3-24.5,59.5
			c-12.7,18.4-30.4,34.6-50,45.6c-4.7,2.6-14.8,7.4-19.6,9.2C413.5,554.3,321,559,268.4,464.9"/>
		<path class="st1" d="M526.7,410.1c0.6-4.7,1-15,0.8-18.8c-0.5-10.2-2.2-20.4-4.9-29.9c-1.9-6.4-2.7-8.2-5.2-10.7
			c-3.4-3.3-6.5-4.5-11.3-4.3c-2.6,0.1-3.3,0.3-5.3,1.2c-2.8,1.4-4.6,2.8-6.2,5.1c-2.9,4.3-3.3,8.9-1.2,15.6
			c7.2,22.9,5.3,47.8-5.2,69.1c-4.6,9.3-9.6,16.5-17.3,24.7c-3.5,3.7-4.7,5.5-5.6,8.9c-1.9,7,2.4,14.9,9.5,17.4c3,1,7.1,1.1,9.8,0.1
			c2.8-1,4.1-2,8.1-6.1C511.4,463.5,523.6,437.2,526.7,410.1L526.7,410.1z"/>
	</g>
	<g>
		<path class="st1" d="M211,922.9c15.8-32.6,17.8-71.1,5.9-115.2c-11-40.9-34.2-83.6-66.1-121.5c-13.3-15.9-27.8-30.8-42.9-44
			c-4-3.5-7.7-6.8-8.1-7.1c-0.5-0.4-5.1-4.1-10.4-8.2c-10.1-7.8-17.8-13.4-26.7-19.3C32.1,587.4,0,572.4-32.4,563.4
			c-32.8-9.1-65.9-11.2-93.5-5.8c-6.6,1.3-19.6,5.1-25.1,7.3l-70-61.9c51.3-28.4,122.2-29.9,198.5-4.4c10,3.4,29.9,11.3,40.2,16
			c43.5,19.8,86.6,48,125.7,82c1.7,1.5,6.5,5.9,10.7,9.7c102.2,94.1,159.2,218.1,145.4,316c-2.7,19.3-8.4,37.4-17.4,55.6
			c-2.7,5.4-15.2,23.5-19.7,28.7"/>
	</g>
	<g>
		<path class="st1" d="M188.7,954.5c15.8-32.6,17.8-71.1,5.9-115.2c-11-40.9-34.2-83.6-66.1-121.5c-13.3-15.9-27.8-30.8-42.9-44
			c-4-3.5-7.7-6.8-8.1-7.1c-0.5-0.4-5.1-4.1-10.4-8.2c-10.1-7.8-17.8-13.4-26.7-19.3C9.8,618.9-22.4,604-54.7,595
			c-32.8-9.1-65.9-11.2-93.5-5.8c-6.6,1.3-19.6,5.1-25.1,7.3l-70-61.9c51.3-28.4,122.2-29.9,198.5-4.4c10,3.4,29.9,11.3,40.2,16
			c43.5,19.8,86.6,48,125.7,82c1.7,1.5,6.5,5.9,10.7,9.7C233.8,732,290.9,856,277,953.9c-2.7,19.3-8.4,37.4-17.4,55.6
			c-2.7,5.4-15.2,23.5-19.7,28.7"/>
	</g>
</g>
</svg>
