<svg id="Laag_1" data-name="Laag 1" xmlns="http://www.w3.org/2000/svg" viewBox="0 0 1310.54 927.99"><defs><style>.cls-1{fill:#fff;}</style></defs><path class="cls-1" d="M642.55,262.82c-101,6.3-182.18,87.44-188.48,188.48Z"/><path class="cls-1" d="M1299.7,432.91c-7.51-9.45-119.51-150.09-286.4-255.71L1119.24,71.26,1048,0,191.25,856.73,262.51,928l126.4-126.4c81.17,38.91,171.37,65.48,266.23,65.48,174.12,0,332.11-89.2,448.28-180.42,116.15-91,190.23-183.94,196.28-191.5a51.11,51.11,0,0,0,10.84-31.25A50.4,50.4,0,0,0,1299.7,432.91Zm-543.76,31A100.82,100.82,0,0,1,629.2,561.3L752.54,438A100.55,100.55,0,0,1,755.94,463.9ZM655.14,766.28c-65.81,0-129.83-16-189.82-41.1l87.62-87.62a199.78,199.78,0,0,0,102.2,27.93c111.38,0,201.59-90.47,201.59-201.59a200.39,200.39,0,0,0-27.89-102.24L939.79,250.72c117.86,70.62,210.44,165,253.83,213.18C1119,546.8,898.81,766.28,655.14,766.28Z"/><path class="cls-1" d="M286,619.37c-77.1-58-136.82-119.69-169.07-155.47C191.25,381,411.73,161.53,655.14,161.53A433.55,433.55,0,0,1,736,169.34l83.15-83.15c-52.41-15.88-107.34-25.45-164-25.45-173.86,0-332.11,89.2-448,180.41C91,332.12,16.88,425.1,10.83,432.91A49,49,0,0,0,0,463.9a49.65,49.65,0,0,0,10.83,31.25c6,7.81,82.91,104.06,202.85,196.54Z"/></svg>