<svg id="Laag_1" data-name="Laag 1" xmlns="http://www.w3.org/2000/svg" viewBox="0 0 808.36 808.36"><defs><style>.cls-1{fill:#fff;}</style></defs><path class="cls-1" d="M1049.07,352.64l-73.26-73.2V100a50.66,50.66,0,0,0-50.52-50.52H874.77A50.66,50.66,0,0,0,824.25,100V128L723.2,27C709.41,14,696.78-1,672.68-1S636,14,622.16,27L296.29,352.64c-15.77,16.42-27.79,28.4-27.79,50.53,0,28.44,21.83,50.52,50.52,50.52h50.52V756.82a50.67,50.67,0,0,0,50.53,50.52H571.63V554.73a50.67,50.67,0,0,1,50.53-50.52h101a50.66,50.66,0,0,1,50.52,50.52V807.34H925.29a50.66,50.66,0,0,0,50.52-50.52V453.69h50.53c28.69,0,50.52-22.08,50.52-50.52C1076.86,381,1064.83,369.06,1049.07,352.64Z" transform="translate(-268.5 1.01)"/></svg>