<svg id="Laag_1" data-name="Laag 1" xmlns="http://www.w3.org/2000/svg" viewBox="0 0 807.82 806.33"><defs><style>.cls-1{fill:#fff;fill-rule:evenodd;}</style></defs><path class="cls-1" d="M967.79,309.51a90.38,90.38,0,0,1,91.26,90.76,92.58,92.58,0,0,1-91.66,92.17L745.88,494l-1.54,221.76c-.42,50.09-41.67,90.65-92.14,90.59s-91-40.74-90.62-90.84l1.53-220.23-220.62,1.55a90.38,90.38,0,0,1-91.26-90.75,92.57,92.57,0,0,1,91.66-92.16l221.51-1.55L566,90.59C566.37,40.5,607.62-.06,658.08,0s91,40.74,90.62,90.84l-1.53,220.23,220.62-1.56Z" transform="translate(-251.23 0)"/></svg>