<svg id="Laag_1" data-name="Laag 1" xmlns="http://www.w3.org/2000/svg" viewBox="0 0 1310.28 806.33"><defs><style>.cls-1{fill:#fff;}</style></defs><path class="cls-1" d="M655.27,262.41c-111.15,0-201.58,90.43-201.58,201.58s90.43,201.59,201.58,201.59S856.85,575.15,856.85,464,766.42,262.41,655.27,262.41Zm0,302.38A100.8,100.8,0,1,1,756.06,464,100.89,100.89,0,0,1,655.27,564.79Z" transform="translate(-0.13 -60.83)"/><path class="cls-1" d="M1299.64,432.87c-11.94-15.21-296.3-372-644.37-372S22.84,417.66,10.9,432.87a50.36,50.36,0,0,0,0,62.25h0c11.94,15.21,296.3,372,644.37,372s632.43-356.83,644.37-372h0A50.36,50.36,0,0,0,1299.64,432.87ZM655.27,766.37c-243.59,0-463.9-219.5-538.38-302.38,74.48-82.87,294.79-302.37,538.38-302.37s463.9,219.5,538.38,302.37C1119.17,546.87,898.86,766.37,655.27,766.37Z" transform="translate(-0.13 -60.83)"/></svg>