<svg id="Laag_1" data-name="Laag 1" xmlns="http://www.w3.org/2000/svg" viewBox="0 0 718.39 806.33"><defs><style>.cls-1{fill:#fff;fill-rule:evenodd;}</style></defs><path class="cls-1" d="M372.23,220.76H942.51c27.35,0,47,15.41,44.24,44.38L938.34,764.71c-1.94,21-14.17,41.62-39.86,41.62H416.21c-21.47-1.15-37.4-15.36-39.52-38l-48-502.07C326,237.27,344.06,220.76,372.23,220.76ZM334.53,60.1h215V44.27C549.52,19.16,565.59,0,592.09,0h128C747.4,0,763.7,18.54,763.7,44.13v16H982.15a23.65,23.65,0,0,1,2.65.21,32.1,32.1,0,0,1,29.44,30.28c0,1.24.1,2.19.1,3.42v67.36A17.69,17.69,0,0,1,997.6,179c-.85,0-1.71.05-2.56.05H313.62A17.69,17.69,0,0,1,296,162.69c0-1.13-.05-2.31-.05-3.51V97c0-17.22,6.64-32.63,26.5-36.26A68.63,68.63,0,0,1,334.53,60.1Zm132,328.29c-.81-16,12.93-29.67,30.76-30.42s33,11.65,33.8,27.68l13.7,253c.81,16-12.95,29.68-30.77,30.44s-33-11.66-33.8-27.68Zm317.76-2.74c.8-16,16-28.46,33.79-27.68s31.57,14.4,30.77,30.42L835.19,641.45c-.81,16-16,28.43-33.8,27.68s-31.58-14.4-30.77-30.44l13.66-253ZM622.1,387c0-16.12,14.54-29.2,32.43-29.2S687,370.9,687,387V640.08c0,16.11-14.56,29.19-32.42,29.19s-32.43-13.08-32.43-29.19V387Z" transform="translate(-295.94 0)"/></svg>